<svg xmlns="http://www.w3.org/2000/svg" xmlns:xlink="http://www.w3.org/1999/xlink" xmlns:inkscape="http://www.inkscape.org/namespaces/inkscape" version="1.1" width="279.429" height="241.308" viewBox="0 0 279.429 241.308">
<defs>
<path id="font_0_2" d="M.4889984 .31877137C.4889984 .42585755 .47799684 .49090577 .44499208 .55496218 .40098573 .6430359 .31999208 .66503909 .2649994 .66503909 .13899231 .66503909 .09298706 .5709839 .07899475 .5429535 .042999269 .4698944 .040985109 .3708191 .040985109 .31877137 .040985109 .25271607 .04399109 .15162659 .09199524 .07156372 .13798523-.0024871827 .21199036-.021484375 .2649994-.021484375 .31298829-.021484375 .39898683-.0064849855 .44898988 .09257507 .48599244 .16464234 .4889984 .2537079 .4889984 .31877137M.2649994 .006515503C.23098755 .006515503 .1619873 .022521973 .14099121 .12760926 .12998963 .18466187 .12998963 .2787323 .12998963 .33078004 .12998963 .3998413 .12998963 .4698944 .14099121 .5249481 .1619873 .6270294 .23999024 .6370239 .2649994 .6370239 .29899598 .6370239 .36799623 .62002566 .3880005 .5289459 .3999939 .4738922 .3999939 .39883424 .3999939 .33078004 .3999939 .27172853 .3999939 .18165589 .3880005 .12561035 .36698915 .020523072 .2979889 .006515503 .2649994 .006515503Z"/>
<path id="font_0_6" d="M.5499878 .007507324C.6419983 .04246521 .7659912 .15840149 .7659912 .3386383 .7659912 .539917 .6069946 .70410159 .41299439 .70410159 .21598816 .70410159 .05899048 .5389099 .05899048 .3386383 .05899048 .13638306 .21899414-.021484375 .41299439-.021484375 .44499208-.021484375 .47898866-.016494751 .5099945-.0074920656 .5309906-.10934448 .548996-.19433594 .6419983-.19433594 .74598696-.19433594 .7719879-.06639099 .7719879-.009490967 .7719879-.00048828127 .7719879 .013504028 .7579956 .013504028 .74598696 .013504028 .7449951 .0025024415 .74398806-.004486084 .73799136-.06539917 .68899539-.09034729 .6499939-.09034729 .60798647-.09034729 .58200076-.06639099 .5499878 .007507324M.33599855 .023498536C.22999573 .064453128 .1599884 .17041016 .1599884 .3386383 .1599884 .5799713 .30099488 .6730957 .4119873 .6730957 .5269928 .6730957 .6649933 .57696536 .6649933 .3386383 .6649933 .21347046 .6259918 .105407718 .5339966 .04547119 .49499513 .13739014 .44699098 .15039063 .41299439 .15039063 .36299134 .15039063 .32499696 .11138916 .32499696 .06544495 .32499696 .046463014 .33198548 .03048706 .33599855 .023498536M.5019989 .02848816C.46798707 .013504028 .43798829 .009506226 .41299439 .009506226 .36099244 .009506226 .35299684 .052459718 .35299684 .06544495 .35299684 .09341431 .37599183 .12237549 .4139862 .12237549 .46299745 .12237549 .4869995 .08642578 .5019989 .02848816Z"/>
<path id="font_0_5" d="M.2539978 .65960696C.24598694 .6796112 .24499512 .6826172 .21699524 .6826172H.04899597V.6496124H.070999149C.147995 .6496124 .1499939 .63861086 .1499939 .6016388V.10694885C.1499939 .080963138 .1499939 .032989503 .04899597 .032989503V0C.09399414 .0029907227 .14099121 .0029907227 .16699219 .0029907227 .19299317 .0029907227 .23999024 .0029907227 .2849884 0V.032989503C.18399048 .032989503 .18399048 .080963138 .18399048 .10694885V.637619L.18499756 .63861086 .43699647 .023986817C.44299317 .010986328 .44699098 0 .46099855 0 .47399903 0 .47898866 .011993408 .48399354 .023986817L.7389984 .64660647 .73999026 .6456146V.080963138C.73999026 .04399109 .73799136 .032989503 .6609955 .032989503H.6389923V0C.71798709 .0029907227 .7200012 .0029907227 .7809906 .0029907227 .84199526 .0029907227 .84399417 .0029907227 .9229889 0V.032989503H.901001C.82398989 .032989503 .82199099 .04399109 .82199099 .080963138V.6016388C.82199099 .63861086 .82398989 .6496124 .901001 .6496124H.9229889V.6826172H.7539978C.72698977 .6826172 .72499087 .6796112 .71798709 .66160586L.48599244 .094955448 .2539978 .65960696Z"/>
<path id="font_0_3" d="M.04798889 .6826172V.6496124H.069992069C.14698792 .6496124 .14898682 .63861086 .14898682 .6016388V.080963138C.14898682 .04399109 .14698792 .032989503 .069992069 .032989503H.04798889V0H.45599366C.59399417 0 .69200137 .08796692 .69200137 .1829071 .69200137 .26385499 .61499026 .3428192 .48999024 .35681153 .598999 .37980653 .6619873 .445755 .6619873 .5137024 .6619873 .6026459 .56199648 .6826172 .42799378 .6826172H.04798889M.23399353 .3688202V.6086426C.23399353 .64260867 .23599243 .6496124 .28199769 .6496124H.42099C.519989 .6496124 .5649872 .57266238 .5649872 .5137024 .5649872 .445755 .5049896 .3688202 .3909912 .3688202H.23399353M.28199769 .032989503C.23599243 .032989503 .23399353 .039993287 .23399353 .07397461V.3408203H.43699647C.5339966 .3408203 .59098818 .26286317 .59098818 .18389893 .59098818 .10295105 .5239868 .032989503 .42199708 .032989503H.28199769Z"/>
<path id="font_0_1" d="M.18699646 .01499939C.18699646-.015029907 .18699646-.09719849 .11099243-.16833496 .10798645-.17134094 .10499573-.17333985 .10499573-.17933655 .10499573-.18833924 .11399841-.19433594 .11898804-.19433594 .13198853-.19433594 .21499634-.1162262 .21499634 .0039978029 .21499634 .05899048 .19499207 .11099243 .14698792 .11099243 .11399841 .11099243 .09199524 .084991458 .09199524 .055999757 .09199524 .025985718 .11299133 0 .147995 0 .16999817 0 .18399048 .011993408 .18699646 .01499939Z"/>
<path id="font_0_4" d="M.70700076 .6781006C.70700076 .6940918 .70700076 .70410159 .69400027 .70410159 .68699648 .70410159 .6859894 .7030945 .6769867 .690094L.6259918 .6160431C.58999636 .65509036 .5239868 .70410159 .42799378 .70410159 .22698975 .70410159 .05899048 .542984 .05899048 .34179688 .05899048 .13961792 .22599793-.021484375 .42900086-.021484375 .5970001-.021484375 .70700076 .11160278 .70700076 .23370362 .70700076 .24371338 .70700076 .25273133 .69099429 .25273133 .6799927 .25273133 .6769867 .24772644 .6759949 .23771668 .66799929 .08357239 .5439911 .011505127 .43798829 .011505127 .35299684 .011505127 .16299439 .06355286 .16299439 .34179688 .16299439 .6110382 .34298707 .6710968 .43798829 .6710968 .5319977 .6710968 .647995 .6040344 .673996 .43188478 .6749878 .4238739 .6759949 .41687013 .6899872 .41687013 .70700076 .41687013 .70700076 .4238739 .70700076 .4429016V.6781006Z"/>
</defs>
<path transform="matrix(1,0,0,-1,29.68,217.509)" stroke-width=".19925" stroke-linecap="butt" stroke-miterlimit="10" stroke-linejoin="miter" fill="none" stroke="#7f807f" d="M0 0V4.25267"/>
<path transform="matrix(1,0,0,-1,29.68,217.509)" stroke-width=".19925" stroke-linecap="butt" stroke-miterlimit="10" stroke-linejoin="miter" fill="none" stroke="#7f807f" d=""/>
<path transform="matrix(1,0,0,-1,29.68,217.509)" stroke-width=".3985" stroke-linecap="butt" stroke-miterlimit="10" stroke-linejoin="miter" fill="none" stroke="#000000" d="M0 0H233.12689"/>
<path transform="matrix(1,0,0,-1,29.68,217.509)" stroke-width=".3985" stroke-linecap="butt" stroke-miterlimit="10" stroke-linejoin="miter" fill="none" stroke="#000000" d="M0 0V193.67472"/>
<use data-text="0" xlink:href="#font_0_2" transform="matrix(7.9701,0,0,-7.9701,27.563,226.16501)"/>
<use data-text="Q" xlink:href="#font_0_6" transform="matrix(7.9701,0,0,-7.9701,259.56,226.475)"/>
<use data-text="M" xlink:href="#font_0_5" transform="matrix(7.9701,0,0,-7.9701,13.283001,18.729004)"/>
<use data-text="B" xlink:href="#font_0_3" transform="matrix(7.9701,0,0,-7.9701,21.037907,18.729004)"/>
<use data-text="," xlink:href="#font_0_1" transform="matrix(7.9701,0,0,-7.9701,27.031422,18.729004)"/>
<use data-text="M" xlink:href="#font_0_5" transform="matrix(7.9701,0,0,-7.9701,32.204019,18.729004)"/>
<use data-text="C" xlink:href="#font_0_4" transform="matrix(7.9701,0,0,-7.9701,39.958925,18.729004)"/>
</svg>
