<svg xmlns="http://www.w3.org/2000/svg" xmlns:xlink="http://www.w3.org/1999/xlink" xmlns:inkscape="http://www.inkscape.org/namespaces/inkscape" version="1.1" width="362.835" height="272.126" viewBox="0 0 362.835 272.126">
<defs>
<path id="font_0_2" d="M.47200013 .324646C.47200013 .419693 .46499635 .50772097 .41799928 .5867615 .3849945 .6417694 .32299806 .67578127 .25698854 .67578127 .20698548 .67578127 .13598633 .6567688 .09098816 .5787506 .04399109 .49972535 .040985109 .39367677 .040985109 .324646 .040985109 .2746277 .040985109 .1605835 .085998538 .07954407 .13598633-.008468628 .21199036-.022460938 .2559967-.022460938 .31399537-.022460938 .38598634 .0015258789 .42900086 .08454895 .46699525 .15757752 .47200013 .24461365 .47200013 .324646M.25698854 .042526246C.12399292 .042526246 .12399292 .24261475 .12399292 .33665467 .12399292 .39968873 .12399292 .45069886 .13899231 .5027313 .1579895 .5717468 .19898987 .6107788 .2559967 .6107788 .3889923 .6107788 .3889923 .4296875 .3889923 .33665467 .3889923 .26863099 .3889923 .19960022 .3659973 .13456726 .34298707 .0655365 .29599 .042526246 .25698854 .042526246Z"/>
<path id="font_0_6" d="M.548996 .03253174C.6380005 .09555054 .70098879 .2086029 .70098879 .3436737 .70098879 .5547638 .5519867 .7158203 .3789978 .7158203 .20599365 .7158203 .056991579 .5547638 .056991579 .3436737 .056991579 .13557434 .20698548-.022460938 .3789978-.022460938 .4099884-.022460938 .44898988-.015472412 .47499085-.0064697267L.55999758-.12745667H.6719971L.548996 .03253174M.43099977 .05253601C.4139862 .047531129 .39698792 .045532228 .3789978 .045532228 .2619934 .045532228 .1499939 .15757752 .1499939 .34466554 .1499939 .5287628 .25898744 .6478119 .3789978 .6478119 .49899293 .6478119 .60798647 .52775576 .60798647 .34466554 .60798647 .21560669 .55400088 .13157654 .5039978 .092559818L.42599488 .19360352H.33198548L.43099977 .05253601Z"/>
<path id="font_0_5" d="M.54100039 .3521576C.5149994 .28512574 .46099855 .14704895 .44898988 .09803772H.44799806C.43798829 .13905335 .3919983 .26011659 .37298585 .308136L.23999024 .64930728 .22200012 .69433596H.101989749V0H.18399048V.6163025H.18499756C.19699097 .56526187 .25498963 .41619874 .2659912 .3881836L.37599183 .106033328C.38398744 .08602905 .40299989 .035995485 .40899659 .021987915H.4850006L.6230011 .37417604C.6380005 .41119386 .69898989 .5692749 .71199038 .6163025H.71299746V0H.79499819V.69433596H.6749878L.54100039 .3521576Z"/>
<path id="font_0_3" d="M.09799194 .69433596V0H.37199403C.5219879 0 .6279907 .0920105 .6279907 .18804932 .6279907 .2770996 .5369873 .3471222 .42999269 .3631134 .5289917 .38812257 .598999 .4471588 .598999 .52023318 .598999 .6123047 .48799134 .69433596 .34498597 .69433596H.09799194M.18798828 .39311219V.6353302H.31599427C.41799928 .6353302 .5149994 .58828738 .5149994 .518219 .5149994 .46017457 .44400025 .39311219 .30499269 .39311219H.18798828M.18798828 .05899048V.328125H.33499146C.44099427 .328125 .54100039 .26809693 .54100039 .1890564 .54100039 .11802673 .45399476 .05899048 .34298707 .05899048H.18798828Z"/>
<path id="font_0_1" d="M.18499756 .0009918213V.085998538H.09899902V0H.125L.09799194-.12695313H.14099121L.18499756 .0009918213Z"/>
<path id="font_0_4" d="M.59799197 .11923218C.5389862 .07324219 .48298646 .058242799 .3999939 .058242799 .25099183 .058242799 .1619873 .2111969 .1619873 .3451538 .1619873 .4931183 .25498963 .6370697 .3999939 .6370697 .46899415 .6370697 .5299988 .6190796 .5779877 .5830841L.59399417 .6710663C.5419922 .69306948 .47698976 .7050781 .4079895 .7050781 .20999146 .7050781 .06599426 .5440979 .06599426 .34716798 .06599426 .15621948 .20599365-.0107421879 .40699769-.0107421879 .5-.0107421879 .5369873 .004257202 .6049957 .04525757L.59799197 .11923218Z"/>
</defs>
<path transform="matrix(1,0,0,-1,0,272.126)" d="M0 0H362.835V272.126H0Z" fill="#ffffff"/>
<path transform="matrix(1,0,0,-1,48.87,228.043)" stroke-width=".19925" stroke-linecap="butt" stroke-miterlimit="10" stroke-linejoin="miter" fill="none" stroke="#7f807f" d="M0 0V4.25267"/>
<path transform="matrix(1,0,0,-1,48.87,228.043)" stroke-width=".19925" stroke-linecap="butt" stroke-miterlimit="10" stroke-linejoin="miter" fill="none" stroke="#7f807f" d=""/>
<path transform="matrix(1,0,0,-1,48.87,228.043)" stroke-width=".3985" stroke-linecap="butt" stroke-miterlimit="10" stroke-linejoin="miter" fill="none" stroke="#000000" d="M0 0H233.12689"/>
<path transform="matrix(1,0,0,-1,48.87,228.043)" stroke-width=".3985" stroke-linecap="butt" stroke-miterlimit="10" stroke-linejoin="miter" fill="none" stroke="#000000" d="M0 0V193.67472"/>
<use data-text="0" xlink:href="#font_0_2" transform="matrix(8.9664,0,0,-8.9664,46.566999,237.74501)"/>
<use data-text="Q" xlink:href="#font_0_6" transform="matrix(8.9664,0,0,-8.9664,278.639,238.10501)"/>
<use data-text="M" xlink:href="#font_0_5" transform="matrix(8.9664,0,0,-8.9664,31.981999,29.363007)"/>
<use data-text="B" xlink:href="#font_0_3" transform="matrix(8.9664,0,0,-8.9664,40.03383,29.363007)"/>
<use data-text="," xlink:href="#font_0_1" transform="matrix(8.9664,0,0,-8.9664,46.184778,29.363007)"/>
<use data-text="M" xlink:href="#font_0_5" transform="matrix(8.9664,0,0,-8.9664,51.824647,29.363007)"/>
<use data-text="C" xlink:href="#font_0_4" transform="matrix(8.9664,0,0,-8.9664,59.876474,29.363007)"/>
</svg>
