<svg xmlns="http://www.w3.org/2000/svg" xmlns:xlink="http://www.w3.org/1999/xlink" xmlns:inkscape="http://www.inkscape.org/namespaces/inkscape" version="1.1" width="362.835" height="272.126" viewBox="0 0 362.835 272.126">
<defs>
<path id="font_10_2" d="M.47200013 .324646C.47200013 .419693 .46499635 .50772097 .41799928 .5867615 .3849945 .6417694 .32299806 .67578127 .25698854 .67578127 .20698548 .67578127 .13598633 .6567688 .09098816 .5787506 .04399109 .49972535 .040985109 .39367677 .040985109 .324646 .040985109 .2746277 .040985109 .1605835 .085998538 .07954407 .13598633-.008468628 .21199036-.022460938 .2559967-.022460938 .31399537-.022460938 .38598634 .0015258789 .42900086 .08454895 .46699525 .15757752 .47200013 .24461365 .47200013 .324646M.25698854 .042526246C.12399292 .042526246 .12399292 .24261475 .12399292 .33665467 .12399292 .39968873 .12399292 .45069886 .13899231 .5027313 .1579895 .5717468 .19898987 .6107788 .2559967 .6107788 .3889923 .6107788 .3889923 .4296875 .3889923 .33665467 .3889923 .26863099 .3889923 .19960022 .3659973 .13456726 .34298707 .0655365 .29599 .042526246 .25698854 .042526246Z"/>
<path id="font_10_6" d="M.548996 .03253174C.6380005 .09555054 .70098879 .2086029 .70098879 .3436737 .70098879 .5547638 .5519867 .7158203 .3789978 .7158203 .20599365 .7158203 .056991579 .5547638 .056991579 .3436737 .056991579 .13557434 .20698548-.022460938 .3789978-.022460938 .4099884-.022460938 .44898988-.015472412 .47499085-.0064697267L.55999758-.12745667H.6719971L.548996 .03253174M.43099977 .05253601C.4139862 .047531129 .39698792 .045532228 .3789978 .045532228 .2619934 .045532228 .1499939 .15757752 .1499939 .34466554 .1499939 .5287628 .25898744 .6478119 .3789978 .6478119 .49899293 .6478119 .60798647 .52775576 .60798647 .34466554 .60798647 .21560669 .55400088 .13157654 .5039978 .092559818L.42599488 .19360352H.33198548L.43099977 .05253601Z"/>
<path id="font_10_5" d="M.54100039 .3521576C.5149994 .28512574 .46099855 .14704895 .44898988 .09803772H.44799806C.43798829 .13905335 .3919983 .26011659 .37298585 .308136L.23999024 .64930728 .22200012 .69433596H.101989749V0H.18399048V.6163025H.18499756C.19699097 .56526187 .25498963 .41619874 .2659912 .3881836L.37599183 .106033328C.38398744 .08602905 .40299989 .035995485 .40899659 .021987915H.4850006L.6230011 .37417604C.6380005 .41119386 .69898989 .5692749 .71199038 .6163025H.71299746V0H.79499819V.69433596H.6749878L.54100039 .3521576Z"/>
<path id="font_10_3" d="M.09799194 .69433596V0H.37199403C.5219879 0 .6279907 .0920105 .6279907 .18804932 .6279907 .2770996 .5369873 .3471222 .42999269 .3631134 .5289917 .38812257 .598999 .4471588 .598999 .52023318 .598999 .6123047 .48799134 .69433596 .34498597 .69433596H.09799194M.18798828 .39311219V.6353302H.31599427C.41799928 .6353302 .5149994 .58828738 .5149994 .518219 .5149994 .46017457 .44400025 .39311219 .30499269 .39311219H.18798828M.18798828 .05899048V.328125H.33499146C.44099427 .328125 .54100039 .26809693 .54100039 .1890564 .54100039 .11802673 .45399476 .05899048 .34298707 .05899048H.18798828Z"/>
<path id="font_10_1" d="M.18499756 .0009918213V.085998538H.09899902V0H.125L.09799194-.12695313H.14099121L.18499756 .0009918213Z"/>
<path id="font_10_4" d="M.59799197 .11923218C.5389862 .07324219 .48298646 .058242799 .3999939 .058242799 .25099183 .058242799 .1619873 .2111969 .1619873 .3451538 .1619873 .4931183 .25498963 .6370697 .3999939 .6370697 .46899415 .6370697 .5299988 .6190796 .5779877 .5830841L.59399417 .6710663C.5419922 .69306948 .47698976 .7050781 .4079895 .7050781 .20999146 .7050781 .06599426 .5440979 .06599426 .34716798 .06599426 .15621948 .20599365-.0107421879 .40699769-.0107421879 .5-.0107421879 .5369873 .004257202 .6049957 .04525757L.59799197 .11923218Z"/>
<path id="font_11_1" d="M.548996 .69433596H.45298768L.02999878 0H.11199951L.23199463 .19824219H.5359955L.57199099 0H.6769867L.548996 .69433596M.5239868 .25723268H.2679901C.31999208 .34425355 .45498658 .5673065 .47299195 .61631777H.47399903L.5239868 .25723268Z"/>
<path id="font_11_2" d="M.24798584 .69433596 .099990848 0H.3849945C.5519867 0 .69099429 .10900879 .69099429 .21406555 .69099429 .2881012 .61898806 .348114 .5219879 .3631134 .6359863 .38911439 .73098757 .45916749 .73098757 .5432434 .73098757 .6263275 .6369934 .69433596 .5029907 .69433596H.24798584M.27799989 .39411927 .32899476 .6353302H.46099855C.56799319 .6353302 .6429901 .58828738 .6429901 .53323367 .6429901 .46417237 .5359955 .39411927 .41099549 .39411927H.27799989M.20698548 .05899048 .2639923 .328125H.40699769C.5289917 .328125 .59999087 .26908876 .59999087 .20706177 .59999087 .13002014 .4909973 .05899048 .36698915 .05899048H.20698548Z"/>
<path id="font_12_1" d="M.5339966-.12745667H.644989L.55599978 .03253174C.7489929 .15757752 .7839966 .34466554 .7839966 .43270875 .7839966 .5977936 .6799927 .7158203 .5309906 .7158203 .32499696 .7158203 .12098694 .491745 .12098694 .2576294 .12098694 .08555603 .23199463-.022460938 .375-.022460938 .4149933-.022460938 .45399476-.012466431 .47200013-.0064697267L.5339966-.12745667M.46798707 .19360352H.37298585L.44299317 .053527833C.4149933 .045532228 .394989 .045532228 .3889923 .045532228 .30099488 .045532228 .21398926 .11155701 .21398926 .2596283 .21398926 .45672608 .36099244 .6478119 .5159912 .6478119 .6179962 .6478119 .69099429 .5637665 .69099429 .43171693 .69099429 .32566834 .6429901 .17459107 .5239868 .092559818L.46798707 .19360352Z"/>
<path id="font_10_7" d="M.24398804 .41970826C.19299317 .43171693 .14199829 .47172547 .14199829 .52975466 .14199829 .586792 .19699097 .6448059 .28799439 .6448059 .3600006 .6448059 .4099884 .6238098 .46199037 .5797882L.47799684 .6668091C.42799378 .69181826 .37998963 .7158203 .2889862 .7158203 .14698792 .7158203 .056991579 .61680606 .056991579 .51675418 .056991579 .491745 .06199646 .4517212 .09599304 .40570069 .14199829 .3456726 .20698548 .33065797 .24798584 .32066346 .2619934 .31666566 .32398988 .301651 .33198548 .2996521 .37799073 .28564454 .42799378 .24162293 .42799378 .17959595 .42799378 .11355591 .37098695 .05152893 .28199769 .05152893 .20098877 .05152893 .125 .08255005 .06199646 .13357544L.04598999 .046524049C.14399719-.014465332 .23498535-.022460938 .28199769-.022460938 .4189911-.022460938 .5130005 .07954407 .5130005 .19059754 .5130005 .3036499 .41999818 .37768556 .34498597 .39569093L.24398804 .41970826Z"/>
</defs>
<path transform="matrix(1,0,0,-1,0,272.126)" d="M0 0H362.835V272.126H0Z" fill="#ffffff"/>
<path transform="matrix(1,0,0,-1,48.87,228.043)" stroke-width=".19925" stroke-linecap="butt" stroke-miterlimit="10" stroke-linejoin="miter" fill="none" stroke="#7f807f" d="M0 0V4.25267"/>
<path transform="matrix(1,0,0,-1,48.87,228.043)" stroke-width=".19925" stroke-linecap="butt" stroke-miterlimit="10" stroke-linejoin="miter" fill="none" stroke="#7f807f" d=""/>
<path transform="matrix(1,0,0,-1,48.87,228.043)" stroke-width=".3985" stroke-linecap="butt" stroke-miterlimit="10" stroke-linejoin="miter" fill="none" stroke="#000000" d="M0 0H233.12689"/>
<path transform="matrix(1,0,0,-1,48.87,228.043)" stroke-width=".3985" stroke-linecap="butt" stroke-miterlimit="10" stroke-linejoin="miter" fill="none" stroke="#000000" d="M0 0V193.67472"/>
<use data-text="0" xlink:href="#font_10_2" transform="matrix(8.9664,0,0,-8.9664,46.566999,237.74501)"/>
<use data-text="Q" xlink:href="#font_10_6" transform="matrix(8.9664,0,0,-8.9664,278.639,238.10501)"/>
<use data-text="M" xlink:href="#font_10_5" transform="matrix(8.9664,0,0,-8.9664,31.981999,29.363007)"/>
<use data-text="B" xlink:href="#font_10_3" transform="matrix(8.9664,0,0,-8.9664,40.03383,29.363007)"/>
<use data-text="," xlink:href="#font_10_1" transform="matrix(8.9664,0,0,-8.9664,46.184778,29.363007)"/>
<use data-text="M" xlink:href="#font_10_5" transform="matrix(8.9664,0,0,-8.9664,51.824647,29.363007)"/>
<use data-text="C" xlink:href="#font_10_4" transform="matrix(8.9664,0,0,-8.9664,59.876474,29.363007)"/>
<path transform="matrix(1,0,0,-1,48.87,228.043)" stroke-width=".79701" stroke-linecap="butt" stroke-miterlimit="10" stroke-linejoin="miter" fill="none" stroke="#ff0000" d="M0 0 .46715 .38809 .93437 .77623 1.40154 1.16435 1.86874 1.55249 2.3359 1.9406 2.80309 2.32872 3.2703 2.71686 3.73746 3.10497 4.20468 3.4931 4.67184 3.88123 5.13905 4.26933 5.60622 4.65747 6.0734 5.0456 6.5406 5.43373 7.00777 5.82184 7.47498 6.20999 7.94214 6.5981 8.40932 6.98619 8.87654 7.37434 9.3437 7.76245 9.81091 8.15059 10.27808 8.53871 10.74525 8.92682 11.21245 9.31496 11.67963 9.70308 12.14684 10.09122 12.614 10.47932 13.08118 10.86745 13.54839 11.25558 14.01556 11.64369 14.48276 12.03185 14.94994 12.41995 15.41714 12.80806 15.88431 13.19621 16.35149 13.58432 16.8187 13.97244 17.28587 14.36057 17.75308 14.7487 18.22025 15.13681 18.68742 15.52493 19.15462 15.91307 19.6218 16.30118 20.08899 16.68933 20.55617 17.07744 21.02335 17.46555 21.49055 17.8537 21.95773 18.2418 22.42493 18.62994 22.8921 19.01807 23.35928 19.40617 23.82648 19.79431 24.29366 20.18243 24.76085 20.57057 25.22803 20.95866 25.69524 21.34682 26.16241 21.73492 26.6296 22.12303 27.09679 22.51118 27.56396 22.89929 28.03116 23.28743 28.49834 23.67555 28.96552 24.06366 29.43272 24.4518 29.8999 24.83992 30.3671 25.22806 30.83427 25.61617 31.30144 26.00429 31.76865 26.39243 32.23582 26.78053 32.70302 27.16869 33.1702 27.5568 33.6374 27.94492 34.10458 28.33304 34.57175 28.72115 35.03896 29.10928 35.50613 29.4974 35.97333 29.88554 36.4405 30.27365 36.90767 30.66177 37.37488 31.04991 37.84206 31.43802 38.30927 31.82617 38.77644 32.21428 39.2436 32.60239 39.71082 32.99054 40.17798 33.37865 40.64519 33.76678 41.11237 34.1549 41.57953 34.54301 42.04675 34.93114 42.5139 35.31926 42.98112 35.7074 43.44829 36.0955 43.9155 36.48366 44.38268 36.87177 44.84984 37.25987 45.31705 37.64803 45.78421 38.03613 46.25143 38.42427 46.71861 38.8124 47.1858 39.20053 47.65295 39.58861 48.12018 39.97679 48.58733 40.36487 49.05452 40.753 49.52173 41.14116 49.98888 41.52922 50.45612 41.91739 50.92325 42.30548 51.39046 42.69362 51.85767 43.08176 52.32481 43.46985 52.79204 43.85802 53.25919 44.2461 53.72638 44.63425 54.1936 45.02238 54.66075 45.41049 55.12798 45.79865 55.59511 46.18672 56.06232 46.57486 56.52953 46.96301 56.99669 47.35112 57.4639 47.73926 57.93105 48.12735 58.39824 48.51547 58.86546 48.90361 59.33263 49.29173 59.79984 49.67987 60.26697 50.06795 60.73418 50.4561 61.20139 50.84424 61.66855 51.23235 62.13576 51.6205 62.60289 52.00858 63.0701 52.39671 63.53731 52.78487 64.00449 53.17297 64.4717 53.56111 64.93883 53.9492 65.40604 54.33734 65.87328 54.72551 66.34041 55.1136 66.80762 55.50172 67.27475 55.8898 67.74196 56.27795 68.2092 56.66612 68.67635 57.0542 69.14354 57.44235 69.61069 57.83043 70.07793 58.2186 70.54514 58.60675 71.01227 58.99483 71.47948 59.38297 71.94661 59.77106 72.41385 60.15923 72.88106 60.54736 73.3482 60.93546 73.8154 61.3236 74.28255 61.71167 74.74977 62.09985 75.217 62.48798 75.68413 62.87605 76.15134 63.2642 76.61847 63.65228 77.08571 64.04045 77.55292 64.4286 78.02005 64.81668 78.48726 65.20482 78.9544 65.59291 79.42163 65.98108 79.88885 66.36922 80.35597 66.75731 80.8232 67.14545 81.29037 67.53355 81.75757 67.9217 82.22478 68.30984 82.69191 68.69792 83.15912 69.08607 83.62625 69.47414 84.0935 69.8623 84.56071 70.25046 85.02783 70.63853 85.49506 71.02667 85.96222 71.4148 86.42943 71.80293 86.89662 72.19107 87.36377 72.57916 87.83098 72.9673 88.29814 73.35541 88.76537 73.74356 89.23256 74.1317 89.6997 74.51978 90.16695 74.90794 90.63408 75.29604 91.10129 75.68417 91.56848 76.07231 92.03563 76.46039 92.50287 76.84856 92.97 77.23665 93.43723 77.62479 93.90442 78.01292 94.37157 78.40102 94.83879 78.78918 95.30594 79.17726 95.77315 79.56541 96.24036 79.95355 96.70749 80.34163 97.17473 80.7298 97.64186 81.11789 98.10907 81.50603 98.57628 81.89417 99.04346 82.28229 99.51065 82.67043 99.9778 83.0585 100.44499 83.44664 100.91222 83.83478 101.37933 84.22287 101.84659 84.61104 102.31374 84.99911 102.78093 85.38727 103.24814 85.7754 103.7153 86.16351 104.18251 86.55165 104.64966 86.93974 105.11685 87.32788 105.58408 87.71602 106.05124 88.10414 106.51845 88.49228 106.98558 88.88037 107.45279 89.26851 107.92004 89.65668 108.38716 90.04474 108.85439 90.43289 109.3215 90.82097 109.78871 91.20912 110.25594 91.59726 110.7231 91.98537 111.1903 92.3735 111.65744 92.7616 112.12465 93.14973 112.59189 93.5379 113.05902 93.926 113.52625 94.31413 113.99336 94.70222 114.46059 95.09036 114.92781 95.47853 115.39496 95.86661 115.86215 96.25476 116.3293 96.64284 116.79651 97.03096 117.26375 97.41914 117.73088 97.80722 118.19809 98.19536 118.66522 98.58345 119.13245 98.97159 119.59967 99.35976 120.06682 99.74785 120.53401 100.13599 121.00116 100.52408 121.46838 100.91225 121.93561 101.30038 122.40274 101.68846 122.86995 102.07661 123.33708 102.46469 123.80432 102.85286 124.27153 103.24101 124.73868 103.62909 125.20587 104.01721 125.67302 104.4053 126.14026 104.79347 126.60747 105.18161 127.07458 105.5697 127.54181 105.95784 128.00899 106.34595 128.47618 106.7341 128.94339 107.12224 129.41053 107.51031 129.87773 107.89847 130.3449 108.28658 130.81212 108.67471 131.27933 109.06287 131.74646 109.45094 132.21367 109.83908 132.68083 110.2272 133.14804 110.61533 133.61525 111.00346 134.08238 111.39156 134.54959 111.7797 135.01676 112.1678 135.48398 112.55595 135.95117 112.94409 136.41832 113.33217 136.88556 113.72035 137.35269 114.10843 137.8199 114.49657 138.28711 114.88472 138.75424 115.2728 139.2215 115.66096 139.68862 116.04906 140.15584 116.4372 140.62303 116.82533 141.09018 117.21342 141.5574 117.60158 142.02455 117.98965 142.49176 118.3778 142.95897 118.76595 143.4261 119.15402 143.89334 119.5422 144.36049 119.93028 144.82769 120.31842 145.29489 120.70657 145.76207 121.09468 146.22927 121.48282 146.69641 121.87091 147.1636 122.25905 147.63083 122.64719 148.098 123.03531 148.5652 123.42345 149.03235 123.81152 149.49954 124.19968 149.96675 124.5878 150.43392 124.9759 150.90114 125.36406 151.36827 125.75214 151.83547 126.14027 152.30269 126.52843 152.76985 126.91653 153.23706 127.30467 153.70421 127.69276 154.1714 128.0809 154.63866 128.46907 155.10578 128.85717 155.573 129.2453 156.04012 129.63338 156.50734 130.02153 156.97458 130.4097 157.44171 130.79778 157.90892 131.18593 158.37606 131.57399 158.84326 131.96213 159.3105 132.35031 159.77764 132.73839 160.24486 133.12653 160.71198 133.51462 161.1792 133.90276 161.64643 134.29093 162.11357 134.67902 162.58078 135.06716 163.04792 135.45523 163.51515 135.84342 163.98236 136.23155 164.4495 136.61963 164.9167 137.00778 165.38384 137.39586 165.85106 137.784 166.31829 138.17217 166.78543 138.56024 167.25263 138.94838 167.71977 139.33647 168.18703 139.72464 168.65422 140.11278 169.12137 140.50087 169.58856 140.889 170.0557 141.27709 170.52294 141.66527 170.99015 142.0534 171.45729 142.44149 171.92449 142.82964 172.39163 143.21772 172.85887 143.60588 173.32608 143.99404 173.79322 144.38211 174.26042 144.77025 174.72757 145.15834 175.1948 145.5465 175.662 145.93463 176.12914 146.32273 176.59635 146.71086 177.06352 147.09897 177.53073 147.48712 177.99794 147.87526 178.46508 148.26334 178.93228 148.65149 179.39945 149.0396 179.86666 149.42774 180.33388 149.81589 180.801 150.20397 181.26822 150.5921 181.73537 150.98023 182.20259 151.36837 182.6698 151.7565 183.13694 152.14458 183.60417 152.53275 184.0713 152.92082 184.53852 153.30898 185.00572 153.69712 185.47286 154.08519 185.94008 154.47335 186.40724 154.86145 186.87445 155.24959 187.34165 155.63774 187.80879 156.02582 188.27602 156.41399 188.74317 156.80208 189.21038 157.19022 189.67758 157.57836 190.14472 157.96645 190.61196 158.35462 191.0791 158.74269 191.54631 159.13083 192.0135 159.51897 192.48069 159.90708 192.94789 160.29523 193.41503 160.6833 193.88222 161.07144 194.34944 161.4596 194.81662 161.8477 195.28382 162.23584 195.75096 162.62393 196.21816 163.01207 196.68537 163.4002 197.15254 163.78833 197.61975 164.17647 198.08689 164.56455 198.5541 164.9527 199.0213 165.34084 199.48847 165.72895 199.95568 166.11708 200.42282 166.50516 200.89002 166.8933 201.35723 167.28145 201.82439 167.66956 202.29161 168.0577 202.75873 168.44579 203.22595 168.83393 203.69316 169.22206 204.16033 169.61019 204.62754 169.99832 205.09467 170.3864 205.56188 170.77455 206.02913 171.16272 206.49625 171.5508 206.96347 171.93894 207.43059 172.32703 207.89781 172.71517 208.36504 173.10332 208.83219 173.49141 209.2994 173.87955 209.76653 174.26764 210.23378 174.6558 210.70098 175.04395 211.16812 175.43204 211.63533 175.82018 212.10245 176.20825 212.5697 176.59642 213.0369 176.98458 213.50405 177.37265 213.97124 177.76079 214.43839 178.14888 214.90564 178.53705 215.37284 178.92519 215.83998 179.31328 216.30718 179.7014 216.77433 180.0895 217.24155 180.47766 217.70877 180.8658 218.1759 181.25388 218.6431 181.64203 219.11025 182.0301 219.57749 182.41828 220.0447 182.80643 220.51184 183.1945 220.97904 183.58264 221.44618 183.97074 221.9134 184.3589 222.38063 184.74704 222.84775 185.13513 223.31497 185.52327 223.7821 185.91136 224.24935 186.29953 224.71656 186.68766 225.18369 187.07573 225.6509 187.46389 226.11808 187.85199 226.58527 188.24013 227.05249 188.62828 227.5196 189.01636 227.98683 189.4045 228.454 189.79262 228.9212 190.18076 229.38842 190.5689 229.85555 190.95699 230.32279 191.34516 230.78992 191.73323 231.25713 192.12139 231.72434 192.50952 232.19147 192.8976 232.65869 193.28575 233.12586 193.67385"/>
<use data-text="M" xlink:href="#font_10_5" transform="matrix(8.9664,0,0,-8.9664,286.028,44.63298)" fill="#ff0000"/>
<use data-text="C" xlink:href="#font_10_4" transform="matrix(8.9664,0,0,-8.9664,294.07984,44.63298)" fill="#ff0000"/>
<path transform="matrix(1,0,0,-1,48.87,228.043)" stroke-width=".79701" stroke-linecap="butt" stroke-miterlimit="10" stroke-linejoin="miter" fill="none" stroke="#0000ff" d="M0 96.83736 .46715 96.64326 .93437 96.44923 1.40154 96.25516 1.86874 96.0611 2.3359 95.86703 2.80309 95.67297 3.2703 95.47891 3.73746 95.28484 4.20468 95.0908 4.67184 94.89673 5.13905 94.70267 5.60622 94.5086 6.0734 94.31454 6.5406 94.12047 7.00777 93.9264 7.47498 93.73236 7.94214 93.5383 8.40932 93.34422 8.87654 93.15018 9.3437 92.9561 9.81091 92.76204 10.27808 92.568 10.74525 92.37393 11.21245 92.17987 11.67963 91.98578 12.14684 91.79175 12.614 91.59767 13.08118 91.40361 13.54839 91.20956 14.01556 91.0155 14.48276 90.82141 14.94994 90.62738 15.41714 90.4333 15.88431 90.23924 16.35149 90.04517 16.8187 89.85114 17.28587 89.65704 17.75308 89.46298 18.22025 89.2689 18.68742 89.07487 19.15462 88.88081 19.6218 88.68674 20.08899 88.49269 20.55617 88.29861 21.02335 88.10455 21.49055 87.9105 21.95773 87.71645 22.42493 87.52237 22.8921 87.3283 23.35928 87.13425 23.82648 86.94019 24.29366 86.74611 24.76085 86.55208 25.22803 86.358 25.69524 86.16393 26.16241 85.96988 26.6296 85.77582 27.09679 85.58176 27.56396 85.38768 28.03116 85.19365 28.49834 84.99956 28.96552 84.8055 29.43272 84.61145 29.8999 84.41739 30.3671 84.22331 30.83427 84.02928 31.30144 83.83519 31.76865 83.64113 32.23582 83.44708 32.70302 83.25299 33.1702 83.05894 33.6374 82.86488 34.10458 82.67082 34.57175 82.47676 35.03896 82.28268 35.50613 82.08865 35.97333 81.89459 36.4405 81.70052 36.90767 81.50647 37.37488 81.31236 37.84206 81.11833 38.30927 80.92426 38.77644 80.7302 39.2436 80.53615 39.71082 80.34207 40.17798 80.14803 40.64519 79.95393 41.11237 79.75989 41.57953 79.56586 42.04675 79.37175 42.5139 79.1777 42.98112 78.98363 43.44829 78.78957 43.9155 78.59554 44.38268 78.40146 44.84984 78.20743 45.31705 78.01334 45.78421 77.81927 46.25143 77.6252 46.71861 77.43114 47.1858 77.23709 47.65295 77.04306 48.12018 76.84894 48.58733 76.6549 49.05452 76.46083 49.52173 76.26677 49.98888 76.07272 50.45612 75.87863 50.92325 75.6846 51.39046 75.49051 51.85767 75.29648 52.32481 75.10243 52.79204 74.90834 53.25919 74.7143 53.72638 74.52022 54.1936 74.32614 54.66075 74.13211 55.12798 73.938 55.59511 73.74397 56.06232 73.54993 56.52953 73.35582 56.99669 73.16177 57.4639 72.96771 57.93105 72.77367 58.39824 72.5796 58.86546 72.38553 59.33263 72.19148 59.79984 71.99738 60.26697 71.80334 60.73418 71.60931 61.20139 71.4152 61.66855 71.22118 62.13576 71.02708 62.60289 70.83305 63.0701 70.63898 63.53731 70.44492 64.00449 70.25087 64.4717 70.05678 64.93883 69.86272 65.40604 69.66869 65.87328 69.47458 66.34041 69.28055 66.80762 69.08647 67.27475 68.89244 67.74196 68.69835 68.2092 68.50426 68.67635 68.31026 69.14354 68.11618 69.61069 67.92212 70.07793 67.72804 70.54514 67.53397 71.01227 67.33992 71.47948 67.14586 71.94661 66.95181 72.41385 66.75775 72.88106 66.56364 73.3482 66.3696 73.8154 66.17555 74.28255 65.98149 74.74977 65.78741 75.217 65.59335 75.68413 65.3993 76.15134 65.20523 76.61847 65.01118 77.08571 64.81712 77.55292 64.62303 78.02005 64.42899 78.48726 64.23495 78.9544 64.0409 79.42163 63.8468 79.88885 63.65273 80.35597 63.4587 80.8232 63.26462 81.29037 63.07056 81.75757 62.8765 82.22478 62.68243 82.69191 62.48836 83.15912 62.29433 83.62625 62.10028 84.0935 61.90619 84.56071 61.7121 85.02783 61.51807 85.49506 61.324 85.96222 61.12996 86.42943 60.93587 86.89662 60.74179 87.36377 60.54774 87.83098 60.3537 88.29814 60.15964 88.76537 59.96556 89.23256 59.7715 89.6997 59.57745 90.16695 59.38338 90.63408 59.1893 91.10129 58.99524 91.56848 58.8012 92.03563 58.60713 92.50287 58.41306 92.97 58.21901 93.43723 58.02495 93.90442 57.83087 94.37157 57.63684 94.83879 57.44276 95.30594 57.24873 95.77315 57.05463 96.24036 56.86058 96.70749 56.66653 97.17473 56.47244 97.64186 56.2784 98.10907 56.08434 98.57628 55.89026 99.04346 55.69621 99.51065 55.5021 99.9778 55.3081 100.44499 55.114 100.91222 54.91997 101.37933 54.7259 101.84659 54.53181 102.31374 54.33778 102.78093 54.1437 103.24814 53.94965 103.7153 53.7556 104.18251 53.56151 104.64966 53.36748 105.11685 53.17342 105.58408 52.97934 106.05124 52.78528 106.51845 52.5912 106.98558 52.39716 107.45279 52.20308 107.92004 52.00902 108.38716 51.81497 108.85439 51.62088 109.3215 51.42683 109.78871 51.23277 110.25594 51.0387 110.7231 50.84465 111.1903 50.65059 111.65744 50.45654 112.12465 50.26248 112.59189 50.06837 113.05902 49.87436 113.52625 49.68025 113.99336 49.48622 114.46059 49.29218 114.92781 49.09808 115.39496 48.90404 115.86215 48.70996 116.3293 48.51591 116.79651 48.32185 117.26375 48.12775 117.73088 47.93375 118.19809 47.73964 118.66522 47.5456 119.13245 47.35156 119.59967 47.15746 120.06682 46.96342 120.53401 46.76935 121.00116 46.5753 121.46838 46.38123 121.93561 46.18713 122.40274 45.99312 122.86995 45.79906 123.33708 45.60498 123.80432 45.41092 124.27153 45.21683 124.73868 45.0228 125.20587 44.82872 125.67302 44.63469 126.14026 44.44061 126.60747 44.24652 127.07458 44.05247 127.54181 43.85843 128.00899 43.66437 128.47618 43.47029 128.94339 43.27623 129.41053 43.08218 129.87773 42.8881 130.3449 42.69403 130.81212 42.5 131.27933 42.3059 131.74646 42.11186 132.21367 41.91782 132.68083 41.72374 133.14804 41.52966 133.61525 41.3356 134.08238 41.14156 134.54959 40.9475 135.01676 40.75343 135.48398 40.55937 135.95117 40.36531 136.41832 40.17123 136.88556 39.97717 137.35269 39.78313 137.8199 39.58907 138.28711 39.39497 138.75424 39.20094 139.2215 39.00687 139.68862 38.81284 140.15584 38.61873 140.62303 38.4247 141.09018 38.2306 141.5574 38.03654 142.02455 37.8425 142.49176 37.64844 142.95897 37.45436 143.4261 37.26033 143.89334 37.06625 144.36049 36.87221 144.82769 36.67812 145.29489 36.48407 145.76207 36.29001 146.22927 36.09593 146.69641 35.90189 147.1636 35.70781 147.63083 35.51375 148.098 35.31967 148.5652 35.12564 149.03235 34.9316 149.49954 34.73749 149.96675 34.54344 150.43392 34.34938 150.90114 34.1553 151.36827 33.96127 151.83547 33.76721 152.30269 33.57312 152.76985 33.37909 153.23706 33.18498 153.70421 32.99098 154.1714 32.79688 154.63866 32.60281 155.10578 32.40875 155.573 32.21469 156.04012 32.02065 156.50734 31.82658 156.97458 31.6325 157.44171 31.43848 157.90892 31.24435 158.37606 31.05035 158.84326 30.85625 159.3105 30.66219 159.77764 30.46814 160.24486 30.27408 160.71198 30.08003 161.1792 29.88596 161.64643 29.6919 162.11357 29.49785 162.58078 29.30379 163.04792 29.10971 163.51515 28.91563 163.98236 28.72156 164.4495 28.52753 164.9167 28.33345 165.38384 28.13942 165.85106 27.94534 166.31829 27.75124 166.78543 27.55722 167.25263 27.36313 167.71977 27.16908 168.18703 26.97502 168.65422 26.78096 169.12137 26.5869 169.58856 26.39284 170.0557 26.19879 170.52294 26.00473 170.99015 25.81062 171.45729 25.61662 171.92449 25.4225 172.39163 25.22847 172.85887 25.0344 173.32608 24.84033 173.79322 24.64629 174.26042 24.45222 174.72757 24.25816 175.1948 24.06407 175.662 23.87 176.12914 23.67596 176.59635 23.48192 177.06352 23.28786 177.53073 23.09378 177.99794 22.8997 178.46508 22.70567 178.93228 22.5116 179.39945 22.31754 179.86666 22.12349 180.33388 21.9294 180.801 21.73534 181.26822 21.5413 181.73537 21.34723 182.20259 21.15317 182.6698 20.95909 183.13694 20.76505 183.60417 20.57097 184.0713 20.3769 184.53852 20.18286 185.00572 19.98877 185.47286 19.79474 185.94008 19.60068 186.40724 19.40662 186.87445 19.21254 187.34165 19.01848 187.80879 18.82443 188.27602 18.63037 188.74317 18.43628 189.21038 18.24225 189.67758 18.04817 190.14472 17.85411 190.61196 17.66003 191.0791 17.466 191.54631 17.27191 192.0135 17.07785 192.48069 16.88377 192.94789 16.68974 193.41503 16.49571 193.88222 16.3016 194.34944 16.10754 194.81662 15.91348 195.28382 15.71942 195.75096 15.52538 196.21816 15.33131 196.68537 15.13724 197.15254 14.94318 197.61975 14.74911 198.08689 14.55505 198.5541 14.36098 199.0213 14.16695 199.48847 13.97287 199.95568 13.7788 200.42282 13.58475 200.89002 13.39069 201.35723 13.19661 201.82439 13.00255 202.29161 12.80852 202.75873 12.61446 203.22595 12.42036 203.69316 12.22632 204.16033 12.03226 204.62754 11.83818 205.09467 11.64415 205.56188 11.45006 206.02913 11.256 206.49625 11.06195 206.96347 10.86786 207.43059 10.67384 207.89781 10.47975 208.36504 10.28568 208.83219 10.09163 209.2994 9.89755 209.76653 9.70352 210.23378 9.50943 210.70098 9.31538 211.16812 9.12134 211.63533 8.92723 212.10245 8.73323 212.5697 8.53912 213.0369 8.34506 213.50405 8.15102 213.97124 7.95695 214.43839 7.7629 214.90564 7.5688 215.37284 7.37476 215.83998 7.18073 216.30718 6.98662 216.77433 6.79259 217.24155 6.5985 217.70877 6.40443 218.1759 6.21039 218.6431 6.01633 219.11025 5.8223 219.57749 5.62819 220.0447 5.43411 220.51184 5.2401 220.97904 5.046 221.44618 4.85196 221.9134 4.6579 222.38063 4.46382 222.84775 4.26978 223.31497 4.0757 223.7821 3.88167 224.24935 3.68759 224.71656 3.4935 225.18369 3.29947 225.6509 3.10538 226.11808 2.91133 226.58527 2.71727 227.05249 2.52321 227.5196 2.32916 227.98683 2.1351 228.454 1.94101 228.9212 1.74698 229.38842 1.55287 229.85555 1.35884 230.32279 1.16476 230.78992 .97073 231.25713 .77664 231.72434 .58258 232.19147 .38853 232.65869 .19447 233.12586 .0004"/>
<use data-text="M" xlink:href="#font_10_5" transform="matrix(8.9664,0,0,-8.9664,52.905,133.789)" fill="#0000ff"/>
<use data-text="B" xlink:href="#font_10_3" transform="matrix(8.9664,0,0,-8.9664,60.956827,133.789)" fill="#0000ff"/>
<use data-text="A" xlink:href="#font_11_1" transform="matrix(5.9776,0,0,-5.9776,67.108,134.852)" fill="#0000ff"/>
<path transform="matrix(1,0,0,-1,48.87,228.043)" stroke-width=".79701" stroke-linecap="butt" stroke-miterlimit="10" stroke-linejoin="miter" fill="none" stroke="#0000ff" d="M0 58.10242 .46715 57.90833 .93437 57.7143 1.40154 57.52022 1.86874 57.32616 2.3359 57.13208 2.80309 56.93803 3.2703 56.74396 3.73746 56.5499 4.20468 56.35585 4.67184 56.16179 5.13905 55.96771 5.60622 55.77367 6.0734 55.57959 6.5406 55.38553 7.00777 55.19145 7.47498 54.99742 7.94214 54.80336 8.40932 54.60928 8.87654 54.41524 9.3437 54.22116 9.81091 54.0271 10.27808 53.83305 10.74525 53.63899 11.21245 53.44492 11.67963 53.25084 12.14684 53.0568 12.614 52.86273 13.08118 52.66866 13.54839 52.47462 14.01556 52.28055 14.48276 52.08647 14.94994 51.89243 15.41714 51.69836 15.88431 51.50429 16.35149 51.31023 16.8187 51.1162 17.28587 50.9221 17.75308 50.72804 18.22025 50.53397 18.68742 50.33994 19.15462 50.14586 19.6218 49.9518 20.08899 49.75774 20.55617 49.56367 21.02335 49.3696 21.49055 49.17557 21.95773 48.98149 22.42493 48.78743 22.8921 48.59334 23.35928 48.3993 23.82648 48.20523 24.29366 48.01117 24.76085 47.81714 25.22803 47.62306 25.69524 47.42899 26.16241 47.23494 26.6296 47.04088 27.09679 46.8468 27.56396 46.65274 28.03116 46.4587 28.49834 46.26462 28.96552 46.07054 29.43272 45.87651 29.8999 45.68243 30.3671 45.48837 30.83427 45.29433 31.30144 45.10025 31.76865 44.90617 32.23582 44.71214 32.70302 44.51805 33.1702 44.324 33.6374 44.12994 34.10458 43.93588 34.57175 43.74182 35.03896 43.54774 35.50613 43.35371 35.97333 43.15964 36.4405 42.96558 36.90767 42.77151 37.37488 42.57742 37.84206 42.38338 38.30927 42.18932 38.77644 41.99524 39.2436 41.80121 39.71082 41.60712 40.17798 41.41309 40.64519 41.21898 41.11237 41.02495 41.57953 40.83092 42.04675 40.63681 42.5139 40.44276 42.98112 40.24869 43.44829 40.05463 43.9155 39.86058 44.38268 39.66652 44.84984 39.47247 45.31705 39.2784 45.78421 39.08432 46.25143 38.89026 46.71861 38.69618 47.1858 38.50215 47.65295 38.3081 48.12018 38.114 48.58733 37.91995 49.05452 37.72589 49.52173 37.53183 49.98888 37.33778 50.45612 37.14369 50.92325 36.94966 51.39046 36.75557 51.85767 36.56152 52.32481 36.3675 52.79204 36.17339 53.25919 35.97935 53.72638 35.78526 54.1936 35.5912 54.66075 35.39716 55.12798 35.20306 55.59511 35.00902 56.06232 34.81499 56.52953 34.62086 56.99669 34.42683 57.4639 34.23276 57.93105 34.03873 58.39824 33.84467 58.86546 33.65059 59.33263 33.45654 59.79984 33.26244 60.26697 33.0684 60.73418 32.87436 61.20139 32.68027 61.66855 32.48622 62.13576 32.29214 62.60289 32.0981 63.0701 31.90404 63.53731 31.70996 64.00449 31.51593 64.4717 31.32182 64.93883 31.12778 65.40604 30.93373 65.87328 30.73964 66.34041 30.54561 66.80762 30.35153 67.27475 30.1575 67.74196 29.96341 68.2092 29.76932 68.67635 29.5753 69.14354 29.38124 69.61069 29.18716 70.07793 28.9931 70.54514 28.79901 71.01227 28.60498 71.47948 28.4109 71.94661 28.21687 72.41385 28.0228 72.88106 27.8287 73.3482 27.63464 73.8154 27.44061 74.28255 27.24654 74.74977 27.05247 75.217 26.85841 75.68413 26.66437 76.15134 26.47029 76.61847 26.27625 77.08571 26.08218 77.55292 25.88808 78.02005 25.69405 78.48726 25.5 78.9544 25.30595 79.42163 25.11185 79.88885 24.91779 80.35597 24.72374 80.8232 24.52968 81.29037 24.3356 81.75757 24.14156 82.22478 23.94748 82.69191 23.75342 83.15912 23.55939 83.62625 23.36534 84.0935 23.17125 84.56071 22.97716 85.02783 22.78313 85.49506 22.58905 85.96222 22.39502 86.42943 22.20091 86.89662 22.00685 87.36377 21.81279 87.83098 21.61876 88.29814 21.42468 88.76537 21.23062 89.23256 21.03654 89.6997 20.84251 90.16695 20.64842 90.63408 20.45436 91.10129 20.2603 91.56848 20.06625 92.03563 19.8722 92.50287 19.67812 92.97 19.48407 93.43723 19.29 93.90442 19.09593 94.37157 18.90189 94.83879 18.70782 95.30594 18.51378 95.77315 18.31969 96.24036 18.12563 96.70749 17.9316 97.17473 17.73749 97.64186 17.54346 98.10907 17.34938 98.57628 17.15532 99.04346 16.96126 99.51065 16.76717 99.9778 16.57317 100.44499 16.37906 100.91222 16.18503 101.37933 15.99097 101.84659 15.79688 102.31374 15.60283 102.78093 15.40877 103.24814 15.21469 103.7153 15.02066 104.18251 14.82655 104.64966 14.63254 105.11685 14.43846 105.58408 14.2444 106.05124 14.05032 106.51845 13.85626 106.98558 13.6622 107.45279 13.46814 107.92004 13.27408 108.38716 13.08003 108.85439 12.88594 109.3215 12.6919 109.78871 12.49783 110.25594 12.30374 110.7231 12.10971 111.1903 11.91563 111.65744 11.7216 112.12465 11.52753 112.59189 11.33344 113.05902 11.1394 113.52625 10.94531 113.99336 10.75127 114.46059 10.55724 114.92781 10.36313 115.39496 10.1691 115.86215 9.975 116.3293 9.78098 116.79651 9.58691 117.26375 9.3928 117.73088 9.1988 118.19809 9.0047 118.66522 8.81065 119.13245 8.61661 119.59967 8.42252 120.06682 8.22847 120.53401 8.03441 121.00116 7.84035 121.46838 7.64629 121.93561 7.45218 122.40274 7.25818 122.86995 7.0641 123.33708 6.87004 123.80432 6.67596 124.27153 6.48189 124.73868 6.28786 125.20587 6.09378 125.67302 5.89975 126.14026 5.70567 126.60747 5.51158 127.07458 5.31752 127.54181 5.12349 128.00899 4.92941 128.47618 4.73535 128.94339 4.54128 129.41053 4.34724 129.87773 4.15315 130.3449 3.95909 130.81212 3.76505 131.27933 3.57095 131.74646 3.3769 132.21367 3.18288 132.68083 2.9888 133.14804 2.79472 133.61525 2.60066 134.08238 2.40662 134.54959 2.21255 135.01676 2.01848 135.48398 1.82443 135.95117 1.63036 136.41832 1.4363 136.88556 1.24222 137.35269 1.04819 137.8199 .85411 138.28711 .66003 138.75424 .46599 139.2215 .27193 139.68862 .07788"/>
<use data-text="M" xlink:href="#font_10_5" transform="matrix(8.9664,0,0,-8.9664,52.905,172.52298)" fill="#0000ff"/>
<use data-text="B" xlink:href="#font_10_3" transform="matrix(8.9664,0,0,-8.9664,60.956827,172.52298)" fill="#0000ff"/>
<use data-text="B" xlink:href="#font_11_2" transform="matrix(5.9776,0,0,-5.9776,67.108,173.58599)" fill="#0000ff"/>
<path transform="matrix(1,0,0,-1,48.87,228.043)" stroke-width=".79701" stroke-linecap="butt" stroke-dasharray="2.98883,2.98883" stroke-miterlimit="10" stroke-linejoin="miter" fill="none" stroke="#000000" d="M77.70888 0V64.55827"/>
<use data-text="Q" xlink:href="#font_12_1" transform="matrix(8.9664,0,0,-8.9664,120.808,238.10501)"/>
<use data-text="A" xlink:href="#font_11_1" transform="matrix(5.9776,0,0,-5.9776,127.616,239.168)"/>
<path transform="matrix(1,0,0,-1,48.87,228.043)" stroke-width=".79701" stroke-linecap="butt" stroke-dasharray="2.98883,2.98883" stroke-miterlimit="10" stroke-linejoin="miter" fill="none" stroke="#000000" d="M46.62537 0V38.73494"/>
<use data-text="Q" xlink:href="#font_12_1" transform="matrix(8.9664,0,0,-8.9664,89.481998,238.10501)"/>
<use data-text="B" xlink:href="#font_11_2" transform="matrix(5.9776,0,0,-5.9776,96.28999,239.168)"/>
<path transform="matrix(1,0,0,-1,48.87,228.043)" stroke-width=".79701" stroke-linecap="butt" stroke-miterlimit="10" stroke-linejoin="miter" fill="none" stroke="#00ff00" d="M0 154.93978 .46715 154.55165 .93437 154.16352 1.40154 153.77539 1.86874 153.38726 2.3359 152.99915 2.80309 152.61103 3.2703 152.22289 3.73746 151.83478 4.20468 151.44664 4.67184 151.05852 5.13905 150.67043 5.60622 150.28229 6.0734 149.89417 6.5406 149.50603 7.00777 149.11792 7.47498 148.72977 7.94214 148.34166 8.40932 147.95355 8.87654 147.5654 9.3437 147.17729 9.81091 146.78916 10.27808 146.40103 10.74525 146.01293 11.21245 145.62479 11.67963 145.23667 12.14684 144.84853 12.614 144.46042 13.08118 144.0723 13.54839 143.68418 14.01556 143.29607 14.48276 142.90792 14.94994 142.5198 15.41714 142.1317 15.88431 141.74355 16.35149 141.35544 16.8187 140.9673 17.28587 140.57918 17.75308 140.19104 18.22025 139.80294 18.68742 139.41481 19.15462 139.02667 19.6218 138.63857 20.08899 138.25041 20.55617 137.8623 21.02335 137.4742 21.49055 137.08606 21.95773 136.69795 22.42493 136.30982 22.8921 135.92169 23.35928 135.53359 23.82648 135.14545 24.29366 134.75733 24.76085 134.36919 25.22803 133.98108 25.69524 133.59293 26.16241 133.20482 26.6296 132.81671 27.09679 132.42856 27.56396 132.04045 28.03116 131.65232 28.49834 131.26419 28.96552 130.87609 29.43272 130.48795 29.8999 130.09984 30.3671 129.7117 30.83427 129.3236 31.30144 128.93547 31.76865 128.54734 32.23582 128.15923 32.70302 127.77107 33.1702 127.38297 33.6374 126.99483 34.10458 126.6067 34.57175 126.2186 35.03896 125.83046 35.50613 125.44234 35.97333 125.0542 36.4405 124.66609 36.90767 124.27797 37.37488 123.88983 37.84206 123.50172 38.30927 123.11359 38.77644 122.72548 39.2436 122.33737 39.71082 121.94922 40.17798 121.56111 40.64519 121.17297 41.11237 120.78485 41.57953 120.39674 42.04675 120.0086 42.5139 119.62048 42.98112 119.23235 43.44829 118.84424 43.9155 118.45609 44.38268 118.06798 44.84984 117.67987 45.31705 117.29172 45.78421 116.90361 46.25143 116.51547 46.71861 116.12737 47.1858 115.73923 47.65295 115.35115 48.12018 114.96297 48.58733 114.57489 49.05452 114.18675 49.52173 113.7986 49.98888 113.41052 50.45612 113.02235 50.92325 112.63426 51.39046 112.24612 51.85767 111.85799 52.32481 111.4699 52.79204 111.08173 53.25919 110.69365 53.72638 110.3055 54.1936 109.91736 54.66075 109.52925 55.12798 109.14111 55.59511 108.75304 56.06232 108.3649 56.52953 107.97675 56.99669 107.58864 57.4639 107.2005 57.93105 106.81241 58.39824 106.42427 58.86546 106.03613 59.33263 105.64801 59.79984 105.25987 60.26697 104.8718 60.73418 104.48364 61.20139 104.0955 61.66855 103.7074 62.13576 103.31924 62.60289 102.93117 63.0701 102.54303 63.53731 102.15489 64.00449 101.76678 64.4717 101.37865 64.93883 100.99055 65.40604 100.60242 65.87328 100.21425 66.34041 99.82616 66.80762 99.43802 67.27475 99.04994 67.74196 98.66179 68.2092 98.27362 68.67635 97.88554 69.14354 97.49739 69.61069 97.10931 70.07793 96.72115 70.54514 96.333 71.01227 95.94492 71.47948 95.5568 71.94661 95.1687 72.41385 94.78053 72.88106 94.3924 73.3482 94.0043 73.8154 93.61617 74.28255 93.22809 74.74977 92.8399 75.217 92.45177 75.68413 92.06369 76.15134 91.67554 76.61847 91.28746 77.08571 90.89929 77.55292 90.51114 78.02005 90.12306 78.48726 89.73492 78.9544 89.34683 79.42163 88.95866 79.88885 88.57054 80.35597 88.18245 80.8232 87.79431 81.29037 87.4062 81.75757 87.01805 82.22478 86.62991 82.69191 86.24184 83.15912 85.85368 83.62625 85.4656 84.0935 85.07744 84.56071 84.68929 85.02783 84.30121 85.49506 83.91307 85.96222 83.52495 86.42943 83.13681 86.89662 82.74867 87.36377 82.36058 87.83098 81.97244 88.29814 81.58435 88.76537 81.1962 89.23256 80.80806 89.6997 80.41998 90.16695 80.03181 90.63408 79.64372 91.10129 79.25558 91.56848 78.86743 92.03563 78.47935 92.50287 78.09119 92.97 77.7031 93.43723 77.31496 93.90442 76.92682 94.37157 76.53873 94.83879 76.15056 95.30594 75.76248 95.77315 75.37433 96.24036 74.98619 96.70749 74.59813 97.17473 74.20996 97.64186 73.82187 98.10907 73.43373 98.57628 73.0456 99.04346 72.65747 99.51065 72.26933 99.9778 71.88124 100.44499 71.4931 100.91222 71.10497 101.37933 70.71687 101.84659 70.3287 102.31374 69.94063 102.78093 69.55247 103.24814 69.16434 103.7153 68.77623 104.18251 68.38809 104.64966 68 105.11685 67.61188 105.58408 67.22374 106.05124 66.83562 106.51845 66.44748 106.98558 66.05939 107.45279 65.67125 107.92004 65.28308 108.38716 64.895 108.85439 64.50685 109.3215 64.11877 109.78871 63.73062 110.25594 63.34248 110.7231 62.95438 111.1903 62.56624 111.65744 62.17815 112.12465 61.79001 112.59189 61.40184 113.05902 61.01376 113.52625 60.62563 113.99336 60.23753 114.46059 59.8494 114.92781 59.46123 115.39496 59.07315 115.86215 58.685 116.3293 58.29692 116.79651 57.90878 117.26375 57.5206 117.73088 57.13252 118.19809 56.74438 118.66522 56.3563 119.13245 55.96815 119.59967 55.57999 120.06682 55.1919 120.53401 54.80376 121.00116 54.41566 121.46838 54.02751 121.93561 53.63937 122.40274 53.2513 122.86995 52.86314 123.33708 52.47507 123.80432 52.0869 124.27153 51.69875 124.73868 51.31067 125.20587 50.92253 125.67302 50.53444 126.14026 50.14627 126.60747 49.75813 127.07458 49.37004 127.54181 48.9819 128.00899 48.5938 128.47618 48.20564 128.94339 47.8175 129.41053 47.42943 129.87773 47.04129 130.3449 46.65318 130.81212 46.26505 131.27933 45.87689 131.74646 45.48882 132.21367 45.10068 132.68083 44.71255 133.14804 44.32442 133.61525 43.93628 134.08238 43.54819 134.54959 43.16005 135.01676 42.77194 135.48398 42.38379 135.95117 41.99565 136.41832 41.60757 136.88556 41.21939 137.35269 40.83131 137.8199 40.44318 138.28711 40.05504 138.75424 39.66696 139.2215 39.2788 139.68862 38.8907 140.15584 38.61873 140.62303 38.4247 141.09018 38.2306 141.5574 38.03654 142.02455 37.8425 142.49176 37.64844 142.95897 37.45436 143.4261 37.26033 143.89334 37.06625 144.36049 36.87221 144.82769 36.67812 145.29489 36.48407 145.76207 36.29001 146.22927 36.09593 146.69641 35.90189 147.1636 35.70781 147.63083 35.51375 148.098 35.31967 148.5652 35.12564 149.03235 34.9316 149.49954 34.73749 149.96675 34.54344 150.43392 34.34938 150.90114 34.1553 151.36827 33.96127 151.83547 33.76721 152.30269 33.57312 152.76985 33.37909 153.23706 33.18498 153.70421 32.99098 154.1714 32.79688 154.63866 32.60281 155.10578 32.40875 155.573 32.21469 156.04012 32.02065 156.50734 31.82658 156.97458 31.6325 157.44171 31.43848 157.90892 31.24435 158.37606 31.05035 158.84326 30.85625 159.3105 30.66219 159.77764 30.46814 160.24486 30.27408 160.71198 30.08003 161.1792 29.88596 161.64643 29.6919 162.11357 29.49785 162.58078 29.30379 163.04792 29.10971 163.51515 28.91563 163.98236 28.72156 164.4495 28.52753 164.9167 28.33345 165.38384 28.13942 165.85106 27.94534 166.31829 27.75124 166.78543 27.55722 167.25263 27.36313 167.71977 27.16908 168.18703 26.97502 168.65422 26.78096 169.12137 26.5869 169.58856 26.39284 170.0557 26.19879 170.52294 26.00473 170.99015 25.81062 171.45729 25.61662 171.92449 25.4225 172.39163 25.22847 172.85887 25.0344 173.32608 24.84033 173.79322 24.64629 174.26042 24.45222 174.72757 24.25816 175.1948 24.06407 175.662 23.87 176.12914 23.67596 176.59635 23.48192 177.06352 23.28786 177.53073 23.09378 177.99794 22.8997 178.46508 22.70567 178.93228 22.5116 179.39945 22.31754 179.86666 22.12349 180.33388 21.9294 180.801 21.73534 181.26822 21.5413 181.73537 21.34723 182.20259 21.15317 182.6698 20.95909 183.13694 20.76505 183.60417 20.57097 184.0713 20.3769 184.53852 20.18286 185.00572 19.98877 185.47286 19.79474 185.94008 19.60068 186.40724 19.40662 186.87445 19.21254 187.34165 19.01848 187.80879 18.82443 188.27602 18.63037 188.74317 18.43628 189.21038 18.24225 189.67758 18.04817 190.14472 17.85411 190.61196 17.66003 191.0791 17.466 191.54631 17.27191 192.0135 17.07785 192.48069 16.88377 192.94789 16.68974 193.41503 16.49571 193.88222 16.3016 194.34944 16.10754 194.81662 15.91348 195.28382 15.71942 195.75096 15.52538 196.21816 15.33131 196.68537 15.13724 197.15254 14.94318 197.61975 14.74911 198.08689 14.55505 198.5541 14.36098 199.0213 14.16695 199.48847 13.97287 199.95568 13.7788 200.42282 13.58475 200.89002 13.39069 201.35723 13.19661 201.82439 13.00255 202.29161 12.80852 202.75873 12.61446 203.22595 12.42036 203.69316 12.22632 204.16033 12.03226 204.62754 11.83818 205.09467 11.64415 205.56188 11.45006 206.02913 11.256 206.49625 11.06195 206.96347 10.86786 207.43059 10.67384 207.89781 10.47975 208.36504 10.28568 208.83219 10.09163 209.2994 9.89755 209.76653 9.70352 210.23378 9.50943 210.70098 9.31538 211.16812 9.12134 211.63533 8.92723 212.10245 8.73323 212.5697 8.53912 213.0369 8.34506 213.50405 8.15102 213.97124 7.95695 214.43839 7.7629 214.90564 7.5688 215.37284 7.37476 215.83998 7.18073 216.30718 6.98662 216.77433 6.79259 217.24155 6.5985 217.70877 6.40443 218.1759 6.21039 218.6431 6.01633 219.11025 5.8223 219.57749 5.62819 220.0447 5.43411 220.51184 5.2401 220.97904 5.046 221.44618 4.85196 221.9134 4.6579 222.38063 4.46382 222.84775 4.26978 223.31497 4.0757 223.7821 3.88167 224.24935 3.68759 224.71656 3.4935 225.18369 3.29947 225.6509 3.10538 226.11808 2.91133 226.58527 2.71727 227.05249 2.52321 227.5196 2.32916 227.98683 2.1351 228.454 1.94101 228.9212 1.74698 229.38842 1.55287 229.85555 1.35884 230.32279 1.16476 230.78992 .97073 231.25713 .77664 231.72434 .58258 232.19147 .38853 232.65869 .19447 233.12586 .0004"/>
<use data-text="M" xlink:href="#font_10_5" transform="matrix(8.9664,0,0,-8.9664,52.905,76.21898)" fill="#00ff00"/>
<use data-text="S" xlink:href="#font_10_7" transform="matrix(8.9664,0,0,-8.9664,60.956827,76.21898)" fill="#00ff00"/>
<use data-text="B" xlink:href="#font_10_3" transform="matrix(8.9664,0,0,-8.9664,66.07664,76.21898)" fill="#00ff00"/>
<path transform="matrix(1,0,0,-1,48.87,228.043)" d="M79.70143 64.55827C79.70143 65.65875 78.80934 66.55083 77.70888 66.55083 76.6084 66.55083 75.71632 65.65875 75.71632 64.55827 75.71632 63.45781 76.6084 62.56572 77.70888 62.56572 78.80934 62.56572 79.70143 63.45781 79.70143 64.55827ZM77.70888 64.55827"/>
<path transform="matrix(1,0,0,-1,48.87,228.043)" stroke-width=".3985" stroke-linecap="butt" stroke-miterlimit="10" stroke-linejoin="miter" fill="none" stroke="#000000" d="M79.70143 64.55827C79.70143 65.65875 78.80934 66.55083 77.70888 66.55083 76.6084 66.55083 75.71632 65.65875 75.71632 64.55827 75.71632 63.45781 76.6084 62.56572 77.70888 62.56572 78.80934 62.56572 79.70143 63.45781 79.70143 64.55827ZM77.70888 64.55827"/>
<path transform="matrix(1,0,0,-1,48.87,228.043)" stroke-width=".3985" stroke-linecap="butt" stroke-miterlimit="10" stroke-linejoin="miter" fill="none" stroke="#000000" d=""/>
<path transform="matrix(1,0,0,-1,48.87,228.043)" d="M48.61792 38.73494C48.61792 39.8354 47.72585 40.7275 46.62537 40.7275 45.5249 40.7275 44.63281 39.8354 44.63281 38.73494 44.63281 37.63446 45.5249 36.74239 46.62537 36.74239 47.72585 36.74239 48.61792 37.63446 48.61792 38.73494ZM46.62537 38.73494"/>
<path transform="matrix(1,0,0,-1,48.87,228.043)" stroke-width=".3985" stroke-linecap="butt" stroke-miterlimit="10" stroke-linejoin="miter" fill="none" stroke="#000000" d="M48.61792 38.73494C48.61792 39.8354 47.72585 40.7275 46.62537 40.7275 45.5249 40.7275 44.63281 39.8354 44.63281 38.73494 44.63281 37.63446 45.5249 36.74239 46.62537 36.74239 47.72585 36.74239 48.61792 37.63446 48.61792 38.73494ZM46.62537 38.73494"/>
<path transform="matrix(1,0,0,-1,48.87,228.043)" stroke-width=".3985" stroke-linecap="butt" stroke-miterlimit="10" stroke-linejoin="miter" fill="none" stroke="#000000" d=""/>
</svg>
