<svg xmlns="http://www.w3.org/2000/svg" xmlns:xlink="http://www.w3.org/1999/xlink" xmlns:inkscape="http://www.inkscape.org/namespaces/inkscape" version="1.1" width="293.676" height="241.308" viewBox="0 0 293.676 241.308">
<defs>
<path id="font_1_2" d="M.4889984 .31877137C.4889984 .42585755 .47799684 .49090577 .44499208 .55496218 .40098573 .6430359 .31999208 .66503909 .2649994 .66503909 .13899231 .66503909 .09298706 .5709839 .07899475 .5429535 .042999269 .4698944 .040985109 .3708191 .040985109 .31877137 .040985109 .25271607 .04399109 .15162659 .09199524 .07156372 .13798523-.0024871827 .21199036-.021484375 .2649994-.021484375 .31298829-.021484375 .39898683-.0064849855 .44898988 .09257507 .48599244 .16464234 .4889984 .2537079 .4889984 .31877137M.2649994 .006515503C.23098755 .006515503 .1619873 .022521973 .14099121 .12760926 .12998963 .18466187 .12998963 .2787323 .12998963 .33078004 .12998963 .3998413 .12998963 .4698944 .14099121 .5249481 .1619873 .6270294 .23999024 .6370239 .2649994 .6370239 .29899598 .6370239 .36799623 .62002566 .3880005 .5289459 .3999939 .4738922 .3999939 .39883424 .3999939 .33078004 .3999939 .27172853 .3999939 .18165589 .3880005 .12561035 .36698915 .020523072 .2979889 .006515503 .2649994 .006515503Z"/>
<path id="font_1_6" d="M.5499878 .007507324C.6419983 .04246521 .7659912 .15840149 .7659912 .3386383 .7659912 .539917 .6069946 .70410159 .41299439 .70410159 .21598816 .70410159 .05899048 .5389099 .05899048 .3386383 .05899048 .13638306 .21899414-.021484375 .41299439-.021484375 .44499208-.021484375 .47898866-.016494751 .5099945-.0074920656 .5309906-.10934448 .548996-.19433594 .6419983-.19433594 .74598696-.19433594 .7719879-.06639099 .7719879-.009490967 .7719879-.00048828127 .7719879 .013504028 .7579956 .013504028 .74598696 .013504028 .7449951 .0025024415 .74398806-.004486084 .73799136-.06539917 .68899539-.09034729 .6499939-.09034729 .60798647-.09034729 .58200076-.06639099 .5499878 .007507324M.33599855 .023498536C.22999573 .064453128 .1599884 .17041016 .1599884 .3386383 .1599884 .5799713 .30099488 .6730957 .4119873 .6730957 .5269928 .6730957 .6649933 .57696536 .6649933 .3386383 .6649933 .21347046 .6259918 .105407718 .5339966 .04547119 .49499513 .13739014 .44699098 .15039063 .41299439 .15039063 .36299134 .15039063 .32499696 .11138916 .32499696 .06544495 .32499696 .046463014 .33198548 .03048706 .33599855 .023498536M.5019989 .02848816C.46798707 .013504028 .43798829 .009506226 .41299439 .009506226 .36099244 .009506226 .35299684 .052459718 .35299684 .06544495 .35299684 .09341431 .37599183 .12237549 .4139862 .12237549 .46299745 .12237549 .4869995 .08642578 .5019989 .02848816Z"/>
<path id="font_1_5" d="M.2539978 .65960696C.24598694 .6796112 .24499512 .6826172 .21699524 .6826172H.04899597V.6496124H.070999149C.147995 .6496124 .1499939 .63861086 .1499939 .6016388V.10694885C.1499939 .080963138 .1499939 .032989503 .04899597 .032989503V0C.09399414 .0029907227 .14099121 .0029907227 .16699219 .0029907227 .19299317 .0029907227 .23999024 .0029907227 .2849884 0V.032989503C.18399048 .032989503 .18399048 .080963138 .18399048 .10694885V.637619L.18499756 .63861086 .43699647 .023986817C.44299317 .010986328 .44699098 0 .46099855 0 .47399903 0 .47898866 .011993408 .48399354 .023986817L.7389984 .64660647 .73999026 .6456146V.080963138C.73999026 .04399109 .73799136 .032989503 .6609955 .032989503H.6389923V0C.71798709 .0029907227 .7200012 .0029907227 .7809906 .0029907227 .84199526 .0029907227 .84399417 .0029907227 .9229889 0V.032989503H.901001C.82398989 .032989503 .82199099 .04399109 .82199099 .080963138V.6016388C.82199099 .63861086 .82398989 .6496124 .901001 .6496124H.9229889V.6826172H.7539978C.72698977 .6826172 .72499087 .6796112 .71798709 .66160586L.48599244 .094955448 .2539978 .65960696Z"/>
<path id="font_1_3" d="M.04798889 .6826172V.6496124H.069992069C.14698792 .6496124 .14898682 .63861086 .14898682 .6016388V.080963138C.14898682 .04399109 .14698792 .032989503 .069992069 .032989503H.04798889V0H.45599366C.59399417 0 .69200137 .08796692 .69200137 .1829071 .69200137 .26385499 .61499026 .3428192 .48999024 .35681153 .598999 .37980653 .6619873 .445755 .6619873 .5137024 .6619873 .6026459 .56199648 .6826172 .42799378 .6826172H.04798889M.23399353 .3688202V.6086426C.23399353 .64260867 .23599243 .6496124 .28199769 .6496124H.42099C.519989 .6496124 .5649872 .57266238 .5649872 .5137024 .5649872 .445755 .5049896 .3688202 .3909912 .3688202H.23399353M.28199769 .032989503C.23599243 .032989503 .23399353 .039993287 .23399353 .07397461V.3408203H.43699647C.5339966 .3408203 .59098818 .26286317 .59098818 .18389893 .59098818 .10295105 .5239868 .032989503 .42199708 .032989503H.28199769Z"/>
<path id="font_1_1" d="M.18699646 .01499939C.18699646-.015029907 .18699646-.09719849 .11099243-.16833496 .10798645-.17134094 .10499573-.17333985 .10499573-.17933655 .10499573-.18833924 .11399841-.19433594 .11898804-.19433594 .13198853-.19433594 .21499634-.1162262 .21499634 .0039978029 .21499634 .05899048 .19499207 .11099243 .14698792 .11099243 .11399841 .11099243 .09199524 .084991458 .09199524 .055999757 .09199524 .025985718 .11299133 0 .147995 0 .16999817 0 .18399048 .011993408 .18699646 .01499939Z"/>
<path id="font_1_4" d="M.70700076 .6781006C.70700076 .6940918 .70700076 .70410159 .69400027 .70410159 .68699648 .70410159 .6859894 .7030945 .6769867 .690094L.6259918 .6160431C.58999636 .65509036 .5239868 .70410159 .42799378 .70410159 .22698975 .70410159 .05899048 .542984 .05899048 .34179688 .05899048 .13961792 .22599793-.021484375 .42900086-.021484375 .5970001-.021484375 .70700076 .11160278 .70700076 .23370362 .70700076 .24371338 .70700076 .25273133 .69099429 .25273133 .6799927 .25273133 .6769867 .24772644 .6759949 .23771668 .66799929 .08357239 .5439911 .011505127 .43798829 .011505127 .35299684 .011505127 .16299439 .06355286 .16299439 .34179688 .16299439 .6110382 .34298707 .6710968 .43798829 .6710968 .5319977 .6710968 .647995 .6040344 .673996 .43188478 .6749878 .4238739 .6759949 .41687013 .6899872 .41687013 .70700076 .41687013 .70700076 .4238739 .70700076 .4429016V.6781006Z"/>
</defs>
<path transform="matrix(1,0,0,-1,29.68,217.509)" stroke-width=".19925" stroke-linecap="butt" stroke-miterlimit="10" stroke-linejoin="miter" fill="none" stroke="#7f807f" d="M0 0V4.25267"/>
<path transform="matrix(1,0,0,-1,29.68,217.509)" stroke-width=".19925" stroke-linecap="butt" stroke-miterlimit="10" stroke-linejoin="miter" fill="none" stroke="#7f807f" d=""/>
<path transform="matrix(1,0,0,-1,29.68,217.509)" stroke-width=".3985" stroke-linecap="butt" stroke-miterlimit="10" stroke-linejoin="miter" fill="none" stroke="#000000" d="M0 0H233.12689"/>
<path transform="matrix(1,0,0,-1,29.68,217.509)" stroke-width=".3985" stroke-linecap="butt" stroke-miterlimit="10" stroke-linejoin="miter" fill="none" stroke="#000000" d="M0 0V193.67472"/>
<use data-text="0" xlink:href="#font_1_2" transform="matrix(7.9701,0,0,-7.9701,27.563,226.16501)"/>
<use data-text="Q" xlink:href="#font_1_6" transform="matrix(7.9701,0,0,-7.9701,259.56,226.475)"/>
<use data-text="M" xlink:href="#font_1_5" transform="matrix(7.9701,0,0,-7.9701,13.283001,18.729004)"/>
<use data-text="B" xlink:href="#font_1_3" transform="matrix(7.9701,0,0,-7.9701,21.037907,18.729004)"/>
<use data-text="," xlink:href="#font_1_1" transform="matrix(7.9701,0,0,-7.9701,27.031422,18.729004)"/>
<use data-text="M" xlink:href="#font_1_5" transform="matrix(7.9701,0,0,-7.9701,32.204019,18.729004)"/>
<use data-text="C" xlink:href="#font_1_4" transform="matrix(7.9701,0,0,-7.9701,39.958925,18.729004)"/>
<path transform="matrix(1,0,0,-1,29.68,217.509)" stroke-width=".79701" stroke-linecap="butt" stroke-miterlimit="10" stroke-linejoin="miter" fill="none" stroke="#ff0000" d="M0 0 .46715 .38809 .93437 .77623 1.40154 1.16435 1.86874 1.55249 2.3359 1.9406 2.80309 2.32872 3.2703 2.71686 3.73746 3.10497 4.20468 3.4931 4.67184 3.88123 5.13905 4.26933 5.60622 4.65747 6.0734 5.0456 6.5406 5.43373 7.00777 5.82184 7.47498 6.20999 7.94214 6.5981 8.40932 6.98619 8.87654 7.37434 9.3437 7.76245 9.81091 8.15059 10.27808 8.53871 10.74525 8.92682 11.21245 9.31496 11.67963 9.70308 12.14684 10.09122 12.614 10.47932 13.08118 10.86745 13.54839 11.25558 14.01556 11.64369 14.48276 12.03185 14.94994 12.41995 15.41714 12.80806 15.88431 13.19621 16.35149 13.58432 16.8187 13.97244 17.28587 14.36057 17.75308 14.7487 18.22025 15.13681 18.68742 15.52493 19.15462 15.91307 19.6218 16.30118 20.08899 16.68933 20.55617 17.07744 21.02335 17.46555 21.49055 17.8537 21.95773 18.2418 22.42493 18.62994 22.8921 19.01807 23.35928 19.40617 23.82648 19.79431 24.29366 20.18243 24.76085 20.57057 25.22803 20.95866 25.69524 21.34682 26.16241 21.73492 26.6296 22.12303 27.09679 22.51118 27.56396 22.89929 28.03116 23.28743 28.49834 23.67555 28.96552 24.06366 29.43272 24.4518 29.8999 24.83992 30.3671 25.22806 30.83427 25.61617 31.30144 26.00429 31.76865 26.39243 32.23582 26.78053 32.70302 27.16869 33.1702 27.5568 33.6374 27.94492 34.10458 28.33304 34.57175 28.72115 35.03896 29.10928 35.50613 29.4974 35.97333 29.88554 36.4405 30.27365 36.90767 30.66177 37.37488 31.04991 37.84206 31.43802 38.30927 31.82617 38.77644 32.21428 39.2436 32.60239 39.71082 32.99054 40.17798 33.37865 40.64519 33.76678 41.11237 34.1549 41.57953 34.54301 42.04675 34.93114 42.5139 35.31926 42.98112 35.7074 43.44829 36.0955 43.9155 36.48366 44.38268 36.87177 44.84984 37.25987 45.31705 37.64803 45.78421 38.03613 46.25143 38.42427 46.71861 38.8124 47.1858 39.20053 47.65295 39.58861 48.12018 39.97679 48.58733 40.36487 49.05452 40.753 49.52173 41.14116 49.98888 41.52922 50.45612 41.91739 50.92325 42.30548 51.39046 42.69362 51.85767 43.08176 52.32481 43.46985 52.79204 43.85802 53.25919 44.2461 53.72638 44.63425 54.1936 45.02238 54.66075 45.41049 55.12798 45.79865 55.59511 46.18672 56.06232 46.57486 56.52953 46.96301 56.99669 47.35112 57.4639 47.73926 57.93105 48.12735 58.39824 48.51547 58.86546 48.90361 59.33263 49.29173 59.79984 49.67987 60.26697 50.06795 60.73418 50.4561 61.20139 50.84424 61.66855 51.23235 62.13576 51.6205 62.60289 52.00858 63.0701 52.39671 63.53731 52.78487 64.00449 53.17297 64.4717 53.56111 64.93883 53.9492 65.40604 54.33734 65.87328 54.72551 66.34041 55.1136 66.80762 55.50172 67.27475 55.8898 67.74196 56.27795 68.2092 56.66612 68.67635 57.0542 69.14354 57.44235 69.61069 57.83043 70.07793 58.2186 70.54514 58.60675 71.01227 58.99483 71.47948 59.38297 71.94661 59.77106 72.41385 60.15923 72.88106 60.54736 73.3482 60.93546 73.8154 61.3236 74.28255 61.71167 74.74977 62.09985 75.217 62.48798 75.68413 62.87605 76.15134 63.2642 76.61847 63.65228 77.08571 64.04045 77.55292 64.4286 78.02005 64.81668 78.48726 65.20482 78.9544 65.59291 79.42163 65.98108 79.88885 66.36922 80.35597 66.75731 80.8232 67.14545 81.29037 67.53355 81.75757 67.9217 82.22478 68.30984 82.69191 68.69792 83.15912 69.08607 83.62625 69.47414 84.0935 69.8623 84.56071 70.25046 85.02783 70.63853 85.49506 71.02667 85.96222 71.4148 86.42943 71.80293 86.89662 72.19107 87.36377 72.57916 87.83098 72.9673 88.29814 73.35541 88.76537 73.74356 89.23256 74.1317 89.6997 74.51978 90.16695 74.90794 90.63408 75.29604 91.10129 75.68417 91.56848 76.07231 92.03563 76.46039 92.50287 76.84856 92.97 77.23665 93.43723 77.62479 93.90442 78.01292 94.37157 78.40102 94.83879 78.78918 95.30594 79.17726 95.77315 79.56541 96.24036 79.95355 96.70749 80.34163 97.17473 80.7298 97.64186 81.11789 98.10907 81.50603 98.57628 81.89417 99.04346 82.28229 99.51065 82.67043 99.9778 83.0585 100.44499 83.44664 100.91222 83.83478 101.37933 84.22287 101.84659 84.61104 102.31374 84.99911 102.78093 85.38727 103.24814 85.7754 103.7153 86.16351 104.18251 86.55165 104.64966 86.93974 105.11685 87.32788 105.58408 87.71602 106.05124 88.10414 106.51845 88.49228 106.98558 88.88037 107.45279 89.26851 107.92004 89.65668 108.38716 90.04474 108.85439 90.43289 109.3215 90.82097 109.78871 91.20912 110.25594 91.59726 110.7231 91.98537 111.1903 92.3735 111.65744 92.7616 112.12465 93.14973 112.59189 93.5379 113.05902 93.926 113.52625 94.31413 113.99336 94.70222 114.46059 95.09036 114.92781 95.47853 115.39496 95.86661 115.86215 96.25476 116.3293 96.64284 116.79651 97.03096 117.26375 97.41914 117.73088 97.80722 118.19809 98.19536 118.66522 98.58345 119.13245 98.97159 119.59967 99.35976 120.06682 99.74785 120.53401 100.13599 121.00116 100.52408 121.46838 100.91225 121.93561 101.30038 122.40274 101.68846 122.86995 102.07661 123.33708 102.46469 123.80432 102.85286 124.27153 103.24101 124.73868 103.62909 125.20587 104.01721 125.67302 104.4053 126.14026 104.79347 126.60747 105.18161 127.07458 105.5697 127.54181 105.95784 128.00899 106.34595 128.47618 106.7341 128.94339 107.12224 129.41053 107.51031 129.87773 107.89847 130.3449 108.28658 130.81212 108.67471 131.27933 109.06287 131.74646 109.45094 132.21367 109.83908 132.68083 110.2272 133.14804 110.61533 133.61525 111.00346 134.08238 111.39156 134.54959 111.7797 135.01676 112.1678 135.48398 112.55595 135.95117 112.94409 136.41832 113.33217 136.88556 113.72035 137.35269 114.10843 137.8199 114.49657 138.28711 114.88472 138.75424 115.2728 139.2215 115.66096 139.68862 116.04906 140.15584 116.4372 140.62303 116.82533 141.09018 117.21342 141.5574 117.60158 142.02455 117.98965 142.49176 118.3778 142.95897 118.76595 143.4261 119.15402 143.89334 119.5422 144.36049 119.93028 144.82769 120.31842 145.29489 120.70657 145.76207 121.09468 146.22927 121.48282 146.69641 121.87091 147.1636 122.25905 147.63083 122.64719 148.098 123.03531 148.5652 123.42345 149.03235 123.81152 149.49954 124.19968 149.96675 124.5878 150.43392 124.9759 150.90114 125.36406 151.36827 125.75214 151.83547 126.14027 152.30269 126.52843 152.76985 126.91653 153.23706 127.30467 153.70421 127.69276 154.1714 128.0809 154.63866 128.46907 155.10578 128.85717 155.573 129.2453 156.04012 129.63338 156.50734 130.02153 156.97458 130.4097 157.44171 130.79778 157.90892 131.18593 158.37606 131.57399 158.84326 131.96213 159.3105 132.35031 159.77764 132.73839 160.24486 133.12653 160.71198 133.51462 161.1792 133.90276 161.64643 134.29093 162.11357 134.67902 162.58078 135.06716 163.04792 135.45523 163.51515 135.84342 163.98236 136.23155 164.4495 136.61963 164.9167 137.00778 165.38384 137.39586 165.85106 137.784 166.31829 138.17217 166.78543 138.56024 167.25263 138.94838 167.71977 139.33647 168.18703 139.72464 168.65422 140.11278 169.12137 140.50087 169.58856 140.889 170.0557 141.27709 170.52294 141.66527 170.99015 142.0534 171.45729 142.44149 171.92449 142.82964 172.39163 143.21772 172.85887 143.60588 173.32608 143.99404 173.79322 144.38211 174.26042 144.77025 174.72757 145.15834 175.1948 145.5465 175.662 145.93463 176.12914 146.32273 176.59635 146.71086 177.06352 147.09897 177.53073 147.48712 177.99794 147.87526 178.46508 148.26334 178.93228 148.65149 179.39945 149.0396 179.86666 149.42774 180.33388 149.81589 180.801 150.20397 181.26822 150.5921 181.73537 150.98023 182.20259 151.36837 182.6698 151.7565 183.13694 152.14458 183.60417 152.53275 184.0713 152.92082 184.53852 153.30898 185.00572 153.69712 185.47286 154.08519 185.94008 154.47335 186.40724 154.86145 186.87445 155.24959 187.34165 155.63774 187.80879 156.02582 188.27602 156.41399 188.74317 156.80208 189.21038 157.19022 189.67758 157.57836 190.14472 157.96645 190.61196 158.35462 191.0791 158.74269 191.54631 159.13083 192.0135 159.51897 192.48069 159.90708 192.94789 160.29523 193.41503 160.6833 193.88222 161.07144 194.34944 161.4596 194.81662 161.8477 195.28382 162.23584 195.75096 162.62393 196.21816 163.01207 196.68537 163.4002 197.15254 163.78833 197.61975 164.17647 198.08689 164.56455 198.5541 164.9527 199.0213 165.34084 199.48847 165.72895 199.95568 166.11708 200.42282 166.50516 200.89002 166.8933 201.35723 167.28145 201.82439 167.66956 202.29161 168.0577 202.75873 168.44579 203.22595 168.83393 203.69316 169.22206 204.16033 169.61019 204.62754 169.99832 205.09467 170.3864 205.56188 170.77455 206.02913 171.16272 206.49625 171.5508 206.96347 171.93894 207.43059 172.32703 207.89781 172.71517 208.36504 173.10332 208.83219 173.49141 209.2994 173.87955 209.76653 174.26764 210.23378 174.6558 210.70098 175.04395 211.16812 175.43204 211.63533 175.82018 212.10245 176.20825 212.5697 176.59642 213.0369 176.98458 213.50405 177.37265 213.97124 177.76079 214.43839 178.14888 214.90564 178.53705 215.37284 178.92519 215.83998 179.31328 216.30718 179.7014 216.77433 180.0895 217.24155 180.47766 217.70877 180.8658 218.1759 181.25388 218.6431 181.64203 219.11025 182.0301 219.57749 182.41828 220.0447 182.80643 220.51184 183.1945 220.97904 183.58264 221.44618 183.97074 221.9134 184.3589 222.38063 184.74704 222.84775 185.13513 223.31497 185.52327 223.7821 185.91136 224.24935 186.29953 224.71656 186.68766 225.18369 187.07573 225.6509 187.46389 226.11808 187.85199 226.58527 188.24013 227.05249 188.62828 227.5196 189.01636 227.98683 189.4045 228.454 189.79262 228.9212 190.18076 229.38842 190.5689 229.85555 190.95699 230.32279 191.34516 230.78992 191.73323 231.25713 192.12139 231.72434 192.50952 232.19147 192.8976 232.65869 193.28575 233.12586 193.67385"/>
<use data-text="M" xlink:href="#font_1_5" transform="matrix(7.9701,0,0,-7.9701,266.522,33.003007)" fill="#ff0000"/>
<use data-text="C" xlink:href="#font_1_4" transform="matrix(7.9701,0,0,-7.9701,274.27693,33.003007)" fill="#ff0000"/>
</svg>
